PathFileType	4	(X/Y/Z)	/Users/itak/Documents/Research/Walk-IL/dataset/trc/00030_00004.trc
DataRate	CameraRate	NumFrames	NumMarkers	Units	OrigDataRate	OrigDataStartFrame	OrigNumFrames
100.000000	100.000000	4	53	mm	100.000000	382	764
Frame#	Time	RPSI			LPSI			L3			STRN			T10			C7			CLAV			RBAK			LBAK			LSHO			LUPA			LAEL			LAOL			LWTS			LWPS			LFRA			LIFD			LHPS			LHTS			RSHO			RUPA			RAEL			RAOL			RWTS			RWPS			RFRA			RIFD			RHTS			RHPS			RBHD			LFHD			RFHD			LBHD			LHIP			RHIP			RASI			LASI			LKNE			LTHI			LANK			LTIP			LTOE			LMT1			LMT5			LHEE			RKNE			RTHI			RANK			RTIP			RTOE			RMT1			RMT5			RHEE			
		X1	Y1	Z1	X2	Y2	Z2	X3	Y3	Z3	X4	Y4	Z4	X5	Y5	Z5	X6	Y6	Z6	X7	Y7	Z7	X8	Y8	Z8	X9	Y9	Z9	X10	Y10	Z10	X11	Y11	Z11	X12	Y12	Z12	X13	Y13	Z13	X14	Y14	Z14	X15	Y15	Z15	X16	Y16	Z16	X17	Y17	Z17	X18	Y18	Z18	X19	Y19	Z19	X20	Y20	Z20	X21	Y21	Z21	X22	Y22	Z22	X23	Y23	Z23	X24	Y24	Z24	X25	Y25	Z25	X26	Y26	Z26	X27	Y27	Z27	X28	Y28	Z28	X29	Y29	Z29	X30	Y30	Z30	X31	Y31	Z31	X32	Y32	Z32	X33	Y33	Z33	X34	Y34	Z34	X35	Y35	Z35	X36	Y36	Z36	X37	Y37	Z37	X38	Y38	Z38	X39	Y39	Z39	X40	Y40	Z40	X41	Y41	Z41	X42	Y42	Z42	X43	Y43	Z43	X44	Y44	Z44	X45	Y45	Z45	X46	Y46	Z46	X47	Y47	Z47	X48	Y48	Z48	X49	Y49	Z49	X50	Y50	Z50	X51	Y51	Z51	X52	Y52	Z52	X53	Y53	Z53	

383	3.82	257.4680480957031	1034.165649414062	-524.4226684570312	264.3618469238281	1038.802490234375	-687.5917358398438	257.3639526367188	1101.307250976562	-612.9376220703125	485.5218811035156	1286.040893554688	-589.9542236328125	235.9920806884766	1247.157470703125	-618.0001831054688	297.2014770507812	1513.131225585938	-624.0199584960938	448.5623474121094	1413.032958984375	-599.9690551757812	228.0185852050781	1379.379516601562	-551.1693725585938	287.314453125	1473.638916015625	-722.6370849609375	398.4154968261719	1474.969482421875	-782.7428588867188	366.220947265625	1360.585693359375	-873.58642578125	349.6107177734375	1153.45166015625	-930.1847534179688	284.8514099121094	1135.914428710938	-849.7271118164062	398.90234375	885.9840698242188	-902.6582641601562	332.6133728027344	889.2726440429688	-962.1038208007812	350.92041015625	1039.39453125	-953.2509765625	398.9021606445312	699.2910766601562	-912.4519653320312	354.0000915527344	796.3077392578125	-970.5498657226562	409.9140625	791.5201416015625	-925.952880859375	351.85546875	1492.086181640625	-441.3336791992188	321.989013671875	1427.109619140625	-373.5471801757812	243.5700531005859	1171.338500976562	-344.4380798339844	250.6596069335938	1141.018310546875	-439.5367736816406	344.4974975585938	899.784912109375	-360.6070861816406	275.6212463378906	890.7613525390625	-300.6287536621094	244.7556915283203	1093.921020507812	-326.1517944335938	346.571533203125	714.3353271484375	-385.1136779785156	365.928466796875	788.66943359375	-349.3209838867188	306.7890319824219	785.063720703125	-304.0591735839844	411.9171142578125	1694.714721679688	-668.0052490234375	503.5644226074219	1671.388916015625	-470.1593627929688	553.6979370117188	1680.3017578125	-555.1209716796875	343.9382629394531	1679.560668945312	-542.5877685546875	380.9053649902344	948.8016357421875	-793.03955078125	362.5744018554688	908.1534423828125	-422.6264343261719	468.5037231445312	954.9069213867188	-483.1104125976562	487.1610717773438	990.3494873046875	-715.6264038085938	547.7212524414062	528.015869140625	-754.638916015625	485.8385314941406	655.4181518554688	-792.8663330078125	443.2536010742188	33.95013427734375	-817.5611572265625	480.1931762695312	284.3946533203125	-808.1759643554688	634.5936279296875	35.15230178833008	-688.5018310546875	574.0970458984375	45.96429061889648	-693.3828735351562	567.072265625	28.96580505371094	-802.24951171875	362.9974975585938	44.26615905761719	-788.1021728515625	453.777587890625	472.9039611816406	-477.2998962402344	406.1275329589844	745.3935546875	-435.2448120117188	24.39132118225098	235.044921875	-565.3096313476562	365.8260803222656	378.2088623046875	-495.9945068359375	139.3468170166016	39.58373641967773	-622.1931762695312	112.6754150390625	100.720588684082	-645.8564453125	96.27053070068359	103.3343811035156	-550.9073486328125	-0.5214162468910217	284.3763427734375	-609.4603271484375	
384	3.83	265.1974487304688	1035.939697265625	-525.579833984375	273.56103515625	1040.422729492188	-688.5816650390625	265.7891845703125	1103.157348632812	-614.3223266601562	493.970947265625	1287.868408203125	-588.4706420898438	244.8372497558594	1248.974975585938	-620.0962524414062	306.3703918457031	1514.915893554688	-625.364501953125	457.1899719238281	1414.845581054688	-599.0039672851562	236.0210723876953	1381.202880859375	-553.5508422851562	297.7905578613281	1475.414672851562	-724.0985717773438	409.7704467773438	1476.848999023438	-782.5264892578125	379.5234069824219	1362.3984375	-873.9633178710938	365.4700317382812	1155.073120117188	-930.7647094726562	299.6103820800781	1136.833984375	-851.411865234375	417.502197265625	888.1885986328125	-902.6425170898438	352.171142578125	890.8197021484375	-963.1263427734375	368.4819641113281	1041.13671875	-953.9053955078125	420.0683898925781	701.2969970703125	-912.9902954101562	374.9557189941406	798.2320556640625	-971.5346069335938	430.343017578125	794.1393432617188	-926.179931640625	358.126708984375	1493.8916015625	-441.9189453125	327.1704711914062	1428.977172851562	-374.5795593261719	248.0893249511719	1173.170288085938	-346.9793701171875	256.7545776367188	1142.938354492188	-441.9773864746094	349.4801635742188	901.6755981445312	-361.6024475097656	279.416748046875	892.4964599609375	-303.1058349609375	248.9171142578125	1095.696655273438	-328.7756958007812	352.3981628417969	716.2744140625	-386.2554016113281	371.0614318847656	790.689453125	-349.9781799316406	310.8942260742188	786.8270263671875	-306.0519104003906	422.1573181152344	1696.444458007812	-667.6513671875	510.7441711425781	1672.899536132812	-468.5133056640625	562.2017211914062	1681.612182617188	-552.6986083984375	352.2417907714844	1681.518188476562	-543.267578125	390.6039428710938	950.1256103515625	-792.6602783203125	369.5809020996094	910.4981079101562	-422.0650634765625	475.72607421875	957.2129516601562	-481.9775390625	496.5347290039062	991.6861572265625	-714.4634399414062	550.8423461914062	527.0650024414062	-755.0454711914062	491.0512390136719	655.4281005859375	-792.8023681640625	443.2313537597656	34.01387023925781	-817.4713745117188	481.3163452148438	284.2218017578125	-808.4891967773438	634.6931762695312	35.2099494934082	-688.5274047851562	574.1505737304688	45.96689987182617	-693.4114379882812	567.115478515625	28.89555358886719	-802.2950439453125	362.9836120605469	44.48296356201172	-788.074951171875	471.0280151367188	477.1954345703125	-473.8750305175781	415.7442016601562	748.6075439453125	-433.1955871582031	47.9013786315918	232.8884582519531	-571.023193359375	385.2675170898438	381.205810546875	-494.1491394042969	171.2936096191406	40.84426879882812	-620.8787231445312	142.6504516601562	100.0538101196289	-646.622314453125	124.1580200195312	104.4699020385742	-552.074462890625	22.22450256347656	280.6279296875	-616.6295776367188	
385	3.84	272.897705078125	1037.692138671875	-526.6137084960938	282.8943786621094	1041.998168945312	-689.423095703125	274.2138366699219	1104.944091796875	-615.5941772460938	502.3315124511719	1289.657836914062	-586.9026489257812	253.6184234619141	1250.727905273438	-622.0675659179688	315.4373168945312	1516.641357421875	-626.5480346679688	465.7245788574219	1416.614501953125	-597.9204711914062	243.9654998779297	1382.95361328125	-555.7989501953125	308.1793212890625	1477.14013671875	-725.3782958984375	420.9833374023438	1478.725219726562	-782.143798828125	392.64990234375	1364.232543945312	-874.1382446289062	381.0606994628906	1156.740844726562	-931.1340942382812	314.2225341796875	1137.783813476562	-852.8524169921875	436.0513610839844	890.5721435546875	-902.3026733398438	371.615966796875	892.4288940429688	-963.744140625	385.8229064941406	1042.923217773438	-954.2897338867188	441.2716064453125	703.4274291992188	-912.9732055664062	395.880859375	800.2310180664062	-972.0244140625	450.7015075683594	796.9013061523438	-925.9488525390625	364.3519287109375	1495.632934570312	-442.4007873535156	332.3112487792969	1430.765380859375	-375.5266723632812	252.6077575683594	1174.940551757812	-349.402587890625	262.776611328125	1144.802368164062	-444.2805786132812	354.3715515136719	903.490478515625	-362.5929870605469	283.2088928222656	894.1618041992188	-305.5020141601562	253.0889129638672	1097.409545898438	-331.2881469726562	358.0676574707031	718.1392211914062	-387.4178466796875	376.1263427734375	792.6460571289062	-350.6594543457031	314.9666748046875	788.519287109375	-308.0108032226562	432.2577514648438	1698.139770507812	-667.116943359375	517.7254028320312	1674.37353515625	-466.7632751464844	570.5570068359375	1682.893920898438	-550.1388549804688	360.447509765625	1683.419799804688	-543.7852783203125	400.116455078125	951.4183349609375	-792.1806030273438	376.5202026367188	912.8345336914062	-421.4169921875	482.8479919433594	959.46435546875	-480.8262023925781	505.7855529785156	992.9618530273438	-713.2523803710938	553.6509399414062	526.168212890625	-755.4825439453125	495.9910888671875	655.4591064453125	-792.7250366210938	443.2051086425781	34.07530212402344	-817.3783569335938	482.2693481445312	284.0895080566406	-808.792236328125	634.7911987304688	35.28109741210938	-688.560302734375	574.1981811523438	45.97377395629883	-693.4537353515625	567.1552734375	28.8270320892334	-802.3546142578125	362.954345703125	44.71234130859375	-788.036865234375	487.7672424316406	481.7153625488281	-470.181640625	425.1329040527344	751.8829345703125	-430.9915771484375	72.09211730957031	229.0527954101562	-576.347900390625	404.4476623535156	384.0318603515625	-492.0202941894531	204.3268585205078	41.80139923095703	-620.23779296875	173.5774841308594	99.01522827148438	-647.580078125	153.0248107910156	104.3711547851562	-553.5568237304688	45.50104141235352	275.2470703125	-623.1373901367188	
386	3.85	280.5527038574219	1039.40185546875	-527.5192260742188	292.3406372070312	1043.514404296875	-690.107666015625	282.6488342285156	1106.642578125	-616.7417602539062	510.6136474609375	1291.37939453125	-585.2378540039062	262.3485717773438	1252.3935546875	-623.9054565429688	324.4070434570312	1518.282470703125	-627.5780639648438	474.1830444335938	1418.319580078125	-596.72314453125	251.8619689941406	1384.610229492188	-557.9173583984375	318.5009460449219	1478.786499023438	-726.483154296875	432.0810852050781	1480.557983398438	-781.599609375	405.62646484375	1366.047485351562	-874.11767578125	396.396484375	1158.424682617188	-931.3118286132812	328.6421203613281	1138.747192382812	-854.0912475585938	454.5029907226562	893.0966796875	-901.6130981445312	390.9339599609375	894.0691528320312	-963.9606323242188	402.9398498535156	1044.72216796875	-954.4148559570312	462.5332946777344	705.7528076171875	-912.3780517578125	416.7541198730469	802.2772216796875	-972.0011596679688	470.9518127441406	799.7750854492188	-925.2096557617188	370.5412902832031	1497.287353515625	-442.7789306640625	337.4288330078125	1432.444946289062	-376.3874206542969	257.1454772949219	1176.622680664062	-351.6983032226562	268.7554626464844	1146.584106445312	-446.4394226074219	359.1948547363281	905.203125	-363.5818481445312	287.0248413085938	895.7357788085938	-307.797119140625	257.2938537597656	1099.036376953125	-333.6774597167969	363.5740356445312	719.89892578125	-388.6177673339844	381.1180114746094	794.4918212890625	-351.3858642578125	319.0171813964844	790.115234375	-309.9270935058594	442.2189636230469	1699.774169921875	-666.4097290039062	524.5087280273438	1675.786254882812	-464.8986511230469	578.752685546875	1684.141479492188	-547.4363403320312	368.5481262207031	1685.23046875	-544.1549682617188	409.4383850097656	952.6619262695312	-791.6099853515625	383.4129943847656	915.1327514648438	-420.7047729492188	489.9037475585938	961.6351318359375	-479.6803894042969	514.91259765625	994.159912109375	-712.0109252929688	556.2008056640625	525.3340454101562	-755.9501953125	500.6925048828125	655.5109252929688	-792.6390380859375	443.1766967773438	34.13619613647461	-817.2798461914062	483.0877685546875	283.9931030273438	-809.0836791992188	634.8928833007812	35.36233139038086	-688.60107421875	574.240478515625	45.98394775390625	-693.50537109375	567.1890258789062	28.76430320739746	-802.4246215820312	362.9141845703125	44.95743560791016	-787.9854736328125	503.971435546875	486.3964233398438	-466.23291015625	434.3477172851562	755.1988525390625	-428.6694030761719	96.93894958496094	223.6851043701172	-581.2368774414062	423.3401184082031	386.6797180175781	-489.6055908203125	238.3756103515625	42.50886917114258	-619.9992065429688	205.4185180664062	97.66184234619141	-648.5902709960938	182.7913970947266	103.1772842407227	-555.143310546875	69.35411071777344	268.3478088378906	-629.005859375	
